<svg xmlns="http://www.w3.org/2000/svg" viewBox="0 0 424.09 107.94"><title>Asset 9</title><g id="abbba92f-f39b-4e81-9051-ba0bcac282e3" data-name="Layer 2"><g id="ee717969-a1c2-47e3-b91a-3db29cb25d39" data-name="Layer 1"><path d="M122.25,84.48l5.24,13.3L127,97.7l5.12-13.22h1.12l-6,14.86-6-14.86Z" fill="#231f20"/><path d="M136.29,88a.63.63,0,0,1,.22-.47.77.77,0,0,1,.48-.19.69.69,0,0,1,.48.19.68.68,0,0,1,0,1,.65.65,0,0,1-.48.19.68.68,0,0,1-.48-.2A.64.64,0,0,1,136.29,88Zm.2,2.88h.94v7.82h-.94Z" fill="#231f20"/><path d="M142.91,90.86,143,93l-.14-.2a3.33,3.33,0,0,1,1.33-1.61,3.75,3.75,0,0,1,2-.59,2.84,2.84,0,0,1,1.19.25,2.35,2.35,0,0,1,.86.68,2,2,0,0,1,.39,1l-.12.12a3.12,3.12,0,0,1,1.32-1.52,3.89,3.89,0,0,1,1.94-.52,2.43,2.43,0,0,1,1.78.65,2.34,2.34,0,0,1,.68,1.69v5.7h-.94v-5.5a1.85,1.85,0,0,0-.44-1.19,1.73,1.73,0,0,0-1.28-.53,2.79,2.79,0,0,0-1.44.4,3.28,3.28,0,0,0-1.07,1.06,3.13,3.13,0,0,0-.45,1.48v4.28h-.94v-5.5a1.81,1.81,0,0,0-.45-1.19,1.76,1.76,0,0,0-1.29-.53,2.9,2.9,0,0,0-1.47.4A3.1,3.1,0,0,0,143.43,93a3.06,3.06,0,0,0-.4,1.53v4.2h-.94V90.86Z" fill="#231f20"/><path d="M162.17,98.84a4.11,4.11,0,0,1-2-.51,3.8,3.8,0,0,1-1.44-1.43,4.22,4.22,0,0,1-.53-2.14,4.29,4.29,0,0,1,.56-2.23,3.78,3.78,0,0,1,1.52-1.42,4.82,4.82,0,0,1,2.18-.49,3.5,3.5,0,0,1,2,.62,3.54,3.54,0,0,1,1.33,1.56l-.14.28.12-2.22h.84v7.82h-.94V96.26l.2.36a2.3,2.3,0,0,1-.48.79,4,4,0,0,1-.83.72,3.86,3.86,0,0,1-1.08.52A3.94,3.94,0,0,1,162.17,98.84Zm.2-.8a3.33,3.33,0,0,0,1.59-.37,2.93,2.93,0,0,0,1.15-1,3,3,0,0,0,.5-1.52V94a3,3,0,0,0-.63-1.32,3.47,3.47,0,0,0-1.15-.92,3.32,3.32,0,0,0-1.48-.34,3.36,3.36,0,0,0-1.62.41A3.25,3.25,0,0,0,159.55,93a3.41,3.41,0,0,0-.44,1.74,3.25,3.25,0,0,0,.44,1.67,3.42,3.42,0,0,0,1.19,1.2A3.13,3.13,0,0,0,162.37,98Z" fill="#231f20"/><path d="M171.21,83.48h.94v15.2h-.94Z" fill="#231f20"/><path d="M180.05,98.84a4.11,4.11,0,0,1-2-.51,3.8,3.8,0,0,1-1.44-1.43,4.22,4.22,0,0,1-.53-2.14,4.29,4.29,0,0,1,.56-2.23,3.78,3.78,0,0,1,1.52-1.42,4.82,4.82,0,0,1,2.18-.49,3.5,3.5,0,0,1,2,.62,3.54,3.54,0,0,1,1.33,1.56l-.14.28.12-2.22h.84v7.82h-.94V96.26l.2.36a2.3,2.3,0,0,1-.48.79,4,4,0,0,1-.83.72,3.86,3.86,0,0,1-1.08.52A3.94,3.94,0,0,1,180.05,98.84Zm.2-.8a3.33,3.33,0,0,0,1.59-.37,2.93,2.93,0,0,0,1.15-1,3,3,0,0,0,.5-1.52V94a3,3,0,0,0-.63-1.32,3.47,3.47,0,0,0-1.15-.92,3.32,3.32,0,0,0-1.48-.34,3.36,3.36,0,0,0-1.62.41A3.25,3.25,0,0,0,177.43,93a3.41,3.41,0,0,0-.44,1.74,3.25,3.25,0,0,0,.44,1.67,3.42,3.42,0,0,0,1.19,1.2A3.13,3.13,0,0,0,180.25,98Z" fill="#231f20"/><path d="M208.69,99,197.49,86.4l.26-.2,0,12.48h-1V84.18h.06l11.2,12.72-.26.08,0-12.5h.94V99Z" fill="#231f20"/><path d="M217.11,98.84a4.11,4.11,0,0,1-2-.51,3.8,3.8,0,0,1-1.44-1.43,4.22,4.22,0,0,1-.53-2.14,4.29,4.29,0,0,1,.56-2.23,3.78,3.78,0,0,1,1.52-1.42,4.82,4.82,0,0,1,2.18-.49,3.72,3.72,0,0,1,3.3,2.18l-.14.28.12-2.22h.84v7.82h-.94V96.26l.2.36a2.3,2.3,0,0,1-.48.79,4,4,0,0,1-.83.72,3.86,3.86,0,0,1-1.08.52A3.94,3.94,0,0,1,217.11,98.84Zm.2-.8a3.33,3.33,0,0,0,1.59-.37,2.93,2.93,0,0,0,1.15-1,3,3,0,0,0,.5-1.52V94a3,3,0,0,0-.63-1.32,3.47,3.47,0,0,0-1.15-.92,3.32,3.32,0,0,0-1.48-.34,3.36,3.36,0,0,0-1.62.41A3.25,3.25,0,0,0,214.49,93a3.41,3.41,0,0,0-.44,1.74,3.25,3.25,0,0,0,.44,1.67,3.42,3.42,0,0,0,1.19,1.2A3.13,3.13,0,0,0,217.31,98Z" fill="#231f20"/><path d="M228.89,99l-4-8.12H226l3.26,7.1-.58,0,3.14-7.08h1L229,99Z" fill="#231f20"/><path d="M237.15,90.86l.1,2.4-.12-.3a3.13,3.13,0,0,1,.82-1.24,4.23,4.23,0,0,1,1.25-.8,3.65,3.65,0,0,1,1.33-.28l0,.92a3.42,3.42,0,0,0-1.63.4A3.23,3.23,0,0,0,237.7,93a2.72,2.72,0,0,0-.43,1.51v4.14h-.94V90.86Z" fill="#231f20"/><path d="M247.41,98.84a4.11,4.11,0,0,1-2-.51,3.73,3.73,0,0,1-1.44-1.43,4.22,4.22,0,0,1-.53-2.14,4.29,4.29,0,0,1,.56-2.23,3.78,3.78,0,0,1,1.52-1.42,4.82,4.82,0,0,1,2.18-.49A3.72,3.72,0,0,1,251,92.8l-.14.28.12-2.22h.84v7.82h-.94V96.26l.2.36a2.3,2.3,0,0,1-.48.79,4,4,0,0,1-.83.72,3.86,3.86,0,0,1-1.08.52A3.94,3.94,0,0,1,247.41,98.84Zm.2-.8a3.33,3.33,0,0,0,1.59-.37,2.93,2.93,0,0,0,1.15-1,3.09,3.09,0,0,0,.5-1.52V94a3,3,0,0,0-.63-1.32,3.57,3.57,0,0,0-1.15-.92,3.32,3.32,0,0,0-1.48-.34,3.36,3.36,0,0,0-1.62.41A3.25,3.25,0,0,0,244.79,93a3.41,3.41,0,0,0-.44,1.74,3.25,3.25,0,0,0,.44,1.67,3.42,3.42,0,0,0,1.19,1.2A3.1,3.1,0,0,0,247.61,98Z" fill="#231f20"/><path d="M257.23,87.42h1V91h2.42v.76h-2.42v7h-1v-7h-1.66V91h1.66Z" fill="#231f20"/><path d="M267.29,98.84a4.08,4.08,0,0,1-2-.51,3.67,3.67,0,0,1-1.44-1.43,4.22,4.22,0,0,1-.53-2.14,4.29,4.29,0,0,1,.56-2.23,3.71,3.71,0,0,1,1.52-1.42,4.82,4.82,0,0,1,2.18-.49,3.53,3.53,0,0,1,2,.62,3.61,3.61,0,0,1,1.33,1.56l-.14.28.12-2.22h.84v7.82h-.94V96.26l.2.36a2.3,2.3,0,0,1-.48.79,4.22,4.22,0,0,1-.83.72,4.15,4.15,0,0,1-1.08.52A3.94,3.94,0,0,1,267.29,98.84Zm.2-.8a3.33,3.33,0,0,0,1.59-.37,3,3,0,0,0,1.15-1,3.09,3.09,0,0,0,.5-1.52V94a3.23,3.23,0,0,0-.63-1.32,3.57,3.57,0,0,0-1.15-.92,3.35,3.35,0,0,0-1.48-.34,3.3,3.3,0,0,0-1.62.41A3.18,3.18,0,0,0,264.67,93a3.41,3.41,0,0,0-.44,1.74,3.25,3.25,0,0,0,.44,1.67,3.34,3.34,0,0,0,1.19,1.2A3.1,3.1,0,0,0,267.49,98Z" fill="#231f20"/><path d="M277.15,90.86l.1,2.46-.12-.48a3,3,0,0,1,1.29-1.61,4,4,0,0,1,2.11-.59,2.48,2.48,0,0,1,1.78.65A2.31,2.31,0,0,1,283,93v5.7h-1V93.24a1.86,1.86,0,0,0-.48-1.26,1.83,1.83,0,0,0-1.34-.52,3,3,0,0,0-2.55,1.44,3,3,0,0,0-.41,1.58v4.2h-.94V90.86Z" fill="#231f20"/><path d="M297.47,96.54a5.73,5.73,0,0,1-.58,2.7,4.17,4.17,0,0,1-1.55,1.71,4.3,4.3,0,0,1-2.19.63v-.94a3.31,3.31,0,0,0,2.39-1.14,4.37,4.37,0,0,0,.95-3v-12h1Z" fill="#231f20"/><path d="M302.61,98.68V83.48h.92v9.46l-.06-.34a3.55,3.55,0,0,1,1.29-1.39,3.72,3.72,0,0,1,2.05-.57,2.48,2.48,0,0,1,1.78.65,2.31,2.31,0,0,1,.7,1.69v5.7h-1V93.24a1.86,1.86,0,0,0-.48-1.26,1.83,1.83,0,0,0-1.34-.52,2.89,2.89,0,0,0-1.46.4A3.13,3.13,0,0,0,304,92.94a3,3,0,0,0-.41,1.54v4.2Z" fill="#231f20"/><path d="M317.19,98.84a4.08,4.08,0,0,1-2-.51,3.67,3.67,0,0,1-1.44-1.43,4.22,4.22,0,0,1-.53-2.14,4.29,4.29,0,0,1,.56-2.23,3.71,3.71,0,0,1,1.52-1.42,4.82,4.82,0,0,1,2.18-.49,3.53,3.53,0,0,1,2,.62,3.61,3.61,0,0,1,1.33,1.56l-.14.28.12-2.22h.84v7.82h-.94V96.26l.2.36a2.3,2.3,0,0,1-.48.79,4.22,4.22,0,0,1-.83.72,4.15,4.15,0,0,1-1.08.52A3.94,3.94,0,0,1,317.19,98.84Zm.2-.8a3.33,3.33,0,0,0,1.59-.37,3,3,0,0,0,1.15-1,3.09,3.09,0,0,0,.5-1.52V94a3.23,3.23,0,0,0-.63-1.32,3.57,3.57,0,0,0-1.15-.92,3.35,3.35,0,0,0-1.48-.34,3.3,3.3,0,0,0-1.62.41A3.18,3.18,0,0,0,314.57,93a3.41,3.41,0,0,0-.44,1.74,3.25,3.25,0,0,0,.44,1.67,3.34,3.34,0,0,0,1.19,1.2A3.1,3.1,0,0,0,317.39,98Z" fill="#231f20"/><path d="M327.05,90.86l.1,2.4L327,93a3.13,3.13,0,0,1,.82-1.24,4.23,4.23,0,0,1,1.25-.8,3.65,3.65,0,0,1,1.33-.28l0,.92a3.42,3.42,0,0,0-1.63.4A3.23,3.23,0,0,0,327.6,93a2.72,2.72,0,0,0-.43,1.51v4.14h-.94V90.86Z" fill="#231f20"/><path d="M334,88a.6.6,0,0,1,.22-.47.77.77,0,0,1,.48-.19.69.69,0,0,1,.48.19.67.67,0,0,1-.48,1.15.68.68,0,0,1-.48-.2A.61.61,0,0,1,334,88Zm.2,2.88h.94v7.82h-.94Z" fill="#231f20"/><path d="M342.25,98.76l-3.7-7.9h1.06l3.38,7.4Zm-1.76,3.68,5.1-11.58h.92l-5,11.58Z" fill="#231f20"/><path d="M353.07,98.84a4.08,4.08,0,0,1-2-.51,3.67,3.67,0,0,1-1.44-1.43,4.22,4.22,0,0,1-.53-2.14,4.29,4.29,0,0,1,.56-2.23,3.71,3.71,0,0,1,1.52-1.42,4.82,4.82,0,0,1,2.18-.49,3.53,3.53,0,0,1,2,.62,3.61,3.61,0,0,1,1.33,1.56l-.14.28.12-2.22h.84v7.82h-.94V96.26l.2.36a2.3,2.3,0,0,1-.48.79,4.22,4.22,0,0,1-.83.72,4.15,4.15,0,0,1-1.08.52A3.94,3.94,0,0,1,353.07,98.84Zm.2-.8a3.33,3.33,0,0,0,1.59-.37,3,3,0,0,0,1.15-1,3.09,3.09,0,0,0,.5-1.52V94a3.23,3.23,0,0,0-.63-1.32,3.57,3.57,0,0,0-1.15-.92,3.35,3.35,0,0,0-1.48-.34,3.3,3.3,0,0,0-1.62.41A3.18,3.18,0,0,0,350.45,93a3.41,3.41,0,0,0-.44,1.74,3.25,3.25,0,0,0,.44,1.67,3.34,3.34,0,0,0,1.19,1.2A3.1,3.1,0,0,0,353.27,98Z" fill="#231f20"/><path d="M380.55,97.68a5,5,0,0,1-.87.45,8.19,8.19,0,0,1-1.09.37,9.3,9.3,0,0,1-1.19.25,8.25,8.25,0,0,1-4.18-.46,6.69,6.69,0,0,1-2.31-1.52,6.59,6.59,0,0,1-1.47-2.26,7.52,7.52,0,0,1-.51-2.79,7.64,7.64,0,0,1,.57-3,7.18,7.18,0,0,1,1.57-2.35,7.1,7.1,0,0,1,2.32-1.53,7.31,7.31,0,0,1,2.8-.54,8,8,0,0,1,2.11.28,7.42,7.42,0,0,1,1.79.76l-.36.88a6.27,6.27,0,0,0-1-.49,8.06,8.06,0,0,0-1.19-.33,6.28,6.28,0,0,0-1.21-.12,6.5,6.5,0,0,0-2.52.48,6.2,6.2,0,0,0-2,1.34,6.31,6.31,0,0,0-1.34,2,6.87,6.87,0,0,0,0,5,5.88,5.88,0,0,0,1.28,2,5.68,5.68,0,0,0,2,1.32,6.66,6.66,0,0,0,2.58.47,7.86,7.86,0,0,0,1.76-.2,5.25,5.25,0,0,0,1.58-.58V93.16h-3.2v-.94h4.18Z" fill="#231f20"/><path d="M386.09,90.86l.1,2.4-.12-.3a3.13,3.13,0,0,1,.82-1.24,4.23,4.23,0,0,1,1.25-.8,3.65,3.65,0,0,1,1.33-.28l0,.92a3.42,3.42,0,0,0-1.63.4A3.23,3.23,0,0,0,386.64,93a2.72,2.72,0,0,0-.43,1.51v4.14h-.94V90.86Z" fill="#231f20"/><path d="M392.13,94.72a4,4,0,0,1,.55-2.08,4.31,4.31,0,0,1,5.77-1.49,4.07,4.07,0,0,1,1.48,1.49,4.28,4.28,0,0,1,0,4.16,4,4,0,0,1-1.49,1.49,4.12,4.12,0,0,1-2.13.55,4.22,4.22,0,0,1-2.14-.53,3.94,3.94,0,0,1-1.49-1.46A4.07,4.07,0,0,1,392.13,94.72Zm.94,0a3.29,3.29,0,0,0,1.59,2.86,3.24,3.24,0,0,0,3.26,0,3.29,3.29,0,0,0,1.59-2.86,3.27,3.27,0,0,0-.43-1.67,3.34,3.34,0,0,0-1.16-1.2,3.15,3.15,0,0,0-3.28,0,3.47,3.47,0,0,0-1.15,1.23A3.32,3.32,0,0,0,393.07,94.74Z" fill="#231f20"/><path d="M406.83,98.9a2.31,2.31,0,0,1-2.46-2.34v-5.7h.94v5.42a2,2,0,0,0,.49,1.26,1.79,1.79,0,0,0,1.35.54,2.65,2.65,0,0,0,1.42-.4A3.06,3.06,0,0,0,410.05,95V90.86H411v7.82h-.84l-.1-2.46.14.54a2.61,2.61,0,0,1-.71,1.09,3.58,3.58,0,0,1-1.2.77A3.74,3.74,0,0,1,406.83,98.9Z" fill="#231f20"/><path d="M420,98.84a3.93,3.93,0,0,1-2.1-.59,3.65,3.65,0,0,1-1.44-1.53l.16-.34v6.06h-.94V90.8h.84l.1,2.56-.18-.58a4.25,4.25,0,0,1,1.52-1.55,4.17,4.17,0,0,1,2.18-.61,3.84,3.84,0,0,1,2,.54,4,4,0,0,1,1.43,1.47,4.26,4.26,0,0,1,.53,2.13,4,4,0,0,1-.55,2.11,3.89,3.89,0,0,1-1.48,1.45A4.18,4.18,0,0,1,420,98.84Zm-.16-.78a3.18,3.18,0,0,0,1.67-.44,3.34,3.34,0,0,0,1.2-1.19,3.17,3.17,0,0,0,.45-1.67,3.31,3.31,0,0,0-1.61-2.88,3.18,3.18,0,0,0-1.65-.44,3.3,3.3,0,0,0-1.6.4,3.25,3.25,0,0,0-1.16,1.08,3.4,3.4,0,0,0-.52,1.54v.64a3.06,3.06,0,0,0,.51,1.5,3.21,3.21,0,0,0,1.16,1.07A3.16,3.16,0,0,0,419.81,98.06Z" fill="#231f20"/><path d="M132.32,15.5l12.9,31.8-5-1,11.7-30.78H162.2L142,61.7,121.88,15.5Z" fill="#231f20"/><path d="M209.36,61.46,175.88,31.22l2.58,1.44.18,27h-8.82V13.76h.36l32.76,30.12L201,43l-.18-27.54h8.76v46Z" fill="#231f20"/><path d="M233.6,50.36a19.88,19.88,0,0,1-2.28,9.84A15.66,15.66,0,0,1,225,66.47a21,21,0,0,1-9.39,2.37V60.38a10.68,10.68,0,0,0,6.66-2.52q2.58-2.28,2.58-7.68V15.5h8.76Z" fill="#231f20"/><path d="M299,55.93a10.49,10.49,0,0,1-2.52,1.54,28.34,28.34,0,0,1-3.57,1.35,32.72,32.72,0,0,1-4,1,23.72,23.72,0,0,1-3.87.36,25.76,25.76,0,0,1-9.39-1.63,21.08,21.08,0,0,1-7.14-4.5,19.65,19.65,0,0,1-4.56-6.77,22.2,22.2,0,0,1-1.59-8.46,25.2,25.2,0,0,1,1.77-9.69A21,21,0,0,1,269,21.83a20.57,20.57,0,0,1,7.11-4.5,23.53,23.53,0,0,1,8.52-1.53,25.75,25.75,0,0,1,7,.9,26.16,26.16,0,0,1,5.7,2.27l-2,5.35a15.44,15.44,0,0,0-3-1.32,31.31,31.31,0,0,0-3.63-1,17,17,0,0,0-3.48-.39,19.7,19.7,0,0,0-7,1.17,14.62,14.62,0,0,0-8.76,8.64,19,19,0,0,0-1.2,6.93,17,17,0,0,0,1.2,6.48A14.56,14.56,0,0,0,273,49.91a15.49,15.49,0,0,0,5.31,3.3,19.09,19.09,0,0,0,6.81,1.17,22.14,22.14,0,0,0,4.38-.45,13.75,13.75,0,0,0,3.72-1.29V44h-8.64V38.42H299Z" fill="#231f20"/><path d="M313.7,34.82l.54,7.19-.3-1a10.56,10.56,0,0,1,2.79-3.87,15.41,15.41,0,0,1,3.84-2.46,9.21,9.21,0,0,1,3.51-.86l-.3,5.52a8.44,8.44,0,0,0-4.95,1.08,9.33,9.33,0,0,0-3.36,3.36,8.76,8.76,0,0,0-1.23,4.5V59.66h-5.52V34.82Z" fill="#231f20"/><path d="M328,47a13,13,0,0,1,1.77-6.72,12.8,12.8,0,0,1,4.89-4.74,15.4,15.4,0,0,1,14.22,0,12.27,12.27,0,0,1,4.74,4.74A13.51,13.51,0,0,1,355.34,47a13.68,13.68,0,0,1-1.68,6.75,12.07,12.07,0,0,1-4.77,4.76,14.27,14.27,0,0,1-7.17,1.75,14.73,14.73,0,0,1-7.05-1.65A12.28,12.28,0,0,1,329.81,54,13.4,13.4,0,0,1,328,47Zm5.58,0a8.84,8.84,0,0,0,1.08,4.36,8.32,8.32,0,0,0,2.91,3.09,7.51,7.51,0,0,0,4.05,1.14,7.72,7.72,0,0,0,4.17-1.14,7.86,7.86,0,0,0,2.85-3.09,9.79,9.79,0,0,0,0-8.7,8.08,8.08,0,0,0-2.85-3.12,7.49,7.49,0,0,0-4.17-1.17,7.33,7.33,0,0,0-4.11,1.2,8.6,8.6,0,0,0-2.88,3.14A9,9,0,0,0,333.62,47.05Z" fill="#231f20"/><path d="M370.76,60.62a7.76,7.76,0,0,1-5.55-2.07,7.45,7.45,0,0,1-2.31-5.37V34.82h5.58V51.2a5.51,5.51,0,0,0,1.17,3.3A4.25,4.25,0,0,0,373,55.82a6.11,6.11,0,0,0,3.75-1.23,8.82,8.82,0,0,0,2.67-3.37,11,11,0,0,0,1-4.82V34.82H386V59.66h-5.1l-.48-6.12.3,1.08a8.76,8.76,0,0,1-2.19,3.09,11,11,0,0,1-3.45,2.13A11.89,11.89,0,0,1,370.76,60.62Z" fill="#231f20"/><path d="M410.3,60.26a11.9,11.9,0,0,1-5.43-1.33,10.07,10.07,0,0,1-4.05-3.53l.36-1.74V71.59h-5.52V34.46h4.8l.78,6.36-.6-1.74a14.6,14.6,0,0,1,4.56-3.78,12.73,12.73,0,0,1,6.18-1.5,11.78,11.78,0,0,1,10.68,6.36,14.55,14.55,0,0,1,1.62,7,13.42,13.42,0,0,1-1.74,7,11.82,11.82,0,0,1-4.77,4.53A14.68,14.68,0,0,1,410.3,60.26Zm-1.08-4.44a9,9,0,0,0,4.41-1.11,8.57,8.57,0,0,0,3.21-3.06,8.24,8.24,0,0,0,1.2-4.41,8.57,8.57,0,0,0-4.17-7.56,8,8,0,0,0-4.23-1.14,8.86,8.86,0,0,0-3.9.84,8.05,8.05,0,0,0-2.88,2.3,9.15,9.15,0,0,0-1.62,3.4v4.14a7.46,7.46,0,0,0,1.44,3.42A7.78,7.78,0,0,0,405.53,55,8.13,8.13,0,0,0,409.22,55.82Z" fill="#231f20"/><path d="M101.71,20.4a8.19,8.19,0,0,0-9.95-3,8.1,8.1,0,0,0-4.42,4.43,7.94,7.94,0,0,0-.35,1,9.21,9.21,0,0,0-1.52-.44C80.88,21.43,75.18,23.5,71,27.64h0l-.12.12c-6.66,6.49-11.09,13.47-13.31,20.87a3.07,3.07,0,0,1-.31-.17c-.65-.37-1.29-.76-1.9-1.16C46.53,41.54,42.4,33.18,40.66,29.68l-.08-.17h0c-1.84-3.7-2.1-8.07-.65-10.63a4.23,4.23,0,0,1,3.6-2.23c5-.39,8.28,2.95,9.7,9.93a25.08,25.08,0,0,1-1.49,13.67,37,37,0,0,0,4.1,3.42,30.64,30.64,0,0,0,2.39-18.11C56.73,18.22,53.1,13.52,48,12A8.17,8.17,0,0,0,40.17,0a9.72,9.72,0,0,0-1.54.27,8.18,8.18,0,0,0-3.13,14.1,6.81,6.81,0,0,0,.88.64,10.11,10.11,0,0,0-.9,1.31c-2.31,4.08-2.1,10.14.53,15.44h0l.07.15q6.18,12.5,15.74,19.11l-.26.24c-.56.51-1.12,1-1.7,1.45a37.05,37.05,0,0,1-9.38,5.44,49.81,49.81,0,0,1-11.91,3l-.18,0h0c-4.09.6-8.33-.5-10.32-2.67a4.22,4.22,0,0,1-1-4.11c1.18-4.9,5.36-7,12.44-6.16A25.13,25.13,0,0,1,42.05,54a35.93,35.93,0,0,0,4.52-2.84,30.69,30.69,0,0,0-16.48-7.87c-7.43-.84-13,1.16-16,5.54a8.23,8.23,0,0,0-4-2.29,8.18,8.18,0,0,0-9.85,6A8.05,8.05,0,0,0,0,54.07a8.2,8.2,0,0,0,6.25,8.32,8.12,8.12,0,0,0,6.18-1,7.19,7.19,0,0,0,.89-.64,10.47,10.47,0,0,0,1,1.25c3.17,3.46,9,5.14,14.84,4.28h0l.16,0c9.19-1.35,16.89-4.39,23-9.06,0,.1.1.21.14.31.32.69.6,1.38.85,2.06,3.73,9.83,2.16,19,1.5,22.88l0,.18h0c-.69,4.07-3,7.77-5.72,9a4.23,4.23,0,0,1-4.23-.31c-4.29-2.64-5-7.26-2-13.74A25.16,25.16,0,0,1,52.1,67.39a35,35,0,0,0-1.31-5.17A30.76,30.76,0,0,0,38.21,75.47c-3.1,6.8-2.92,12.74.33,16.94a8.18,8.18,0,0,0-.72,14.33A8.19,8.19,0,0,0,49.06,104a8.12,8.12,0,0,0,1-6.18,9.15,9.15,0,0,0-.33-1,9.47,9.47,0,0,0,1.49-.53c4.28-1.94,7.67-7,8.65-12.79v0l0-.16c1.56-9.16,1-17.42-1.49-24.71l.34,0q1.13-.14,2.22-.18c10.5-.49,18.75,3.83,22.21,5.66l.16.08h0c3.67,1.92,6.46,5.3,6.79,8.23a4.26,4.26,0,0,1-1.61,3.91c-3.83,3.27-8.44,2.48-13.68-2.32A25.24,25.24,0,0,1,68,62a37.93,37.93,0,0,0-5.32-.35A30.75,30.75,0,0,0,71.38,77.7c5.51,5,11.21,6.72,16.22,4.92a8.12,8.12,0,0,0,7.44,7A8.08,8.08,0,0,0,101,87.73a8.15,8.15,0,0,0,.91-11.53,8.15,8.15,0,0,0-6.67-2.84,9.46,9.46,0,0,0,0-1.59c-.52-4.66-4.25-9.43-9.49-12.17h0l-.13-.07Q73.18,53,61.56,53.3c0-.11,0-.23.07-.34.15-.74.33-1.46.53-2.16,2.76-10.13,9.43-16.65,12.23-19.38l.13-.13h0c3-2.9,7-4.5,9.91-3.91a4.26,4.26,0,0,1,3.24,2.73c1.92,4.66-.25,8.79-6.45,12.31a25.28,25.28,0,0,1-13.47,2.81,37,37,0,0,0-2,5,30.77,30.77,0,0,0,18-3.32c6.51-3.69,9.85-8.59,9.69-13.91A8.16,8.16,0,0,0,98,32.45a8.19,8.19,0,0,0,4.42-10.67A9.1,9.1,0,0,0,101.71,20.4ZM37.22,8.45a3.6,3.6,0,0,1,2.62-3.74,4,4,0,0,1,1.62-.08,2.43,2.43,0,0,1,.6.17,3.63,3.63,0,0,1,2.32,3.09,3.58,3.58,0,0,1-2.62,3.74,3.76,3.76,0,0,1-.67.12,3.57,3.57,0,0,1-2.62-.85A3.62,3.62,0,0,1,37.22,8.45ZM11.77,54.6a5.31,5.31,0,0,1-.1.68,3.59,3.59,0,0,1-7.08-1A4,4,0,0,1,5,52.72a2.32,2.32,0,0,1,.35-.53,3.61,3.61,0,0,1,6.41,2.41ZM45.58,98.93a3.58,3.58,0,0,1-4.75,4.19,3.67,3.67,0,0,1-1.35-.88,2.63,2.63,0,0,1-.39-.49,3.6,3.6,0,0,1,4.26-5.35,2.77,2.77,0,0,1,.62.31A3.53,3.53,0,0,1,45.58,98.93ZM59.21,53.25a.88.88,0,0,1,0,.17,2.93,2.93,0,0,1-1.52,2.92l-.15.07-.13.06a2.94,2.94,0,0,1-3.13-.61l-.12-.12a2.7,2.7,0,0,1-.56-.88,2.89,2.89,0,0,1-.15-1.71,2.22,2.22,0,0,1,.23-.67l.08-.15a2.89,2.89,0,0,1,2.95-1.47l.18,0A2.93,2.93,0,0,1,59,52.66,3.28,3.28,0,0,1,59.21,53.25ZM93.35,78.79a3.59,3.59,0,0,1,5.14,5,4.1,4.1,0,0,1-1.25,1,3.89,3.89,0,0,1-.6.22A3.63,3.63,0,0,1,93,83.85a3.58,3.58,0,0,1-.08-4.57A2.73,2.73,0,0,1,93.35,78.79Zm5.11-54.36a3.47,3.47,0,0,1,0,.64,3.61,3.61,0,0,1-6.6,1.82,3.91,3.91,0,0,1-.32-.61,3.59,3.59,0,0,1,6.32-3.35A3.92,3.92,0,0,1,98.46,24.43Z" fill="#e32241"/></g></g></svg>